<svg width="72" height="57" viewBox="0 0 72 57" fill="none" xmlns="http://www.w3.org/2000/svg">
<g clip-path="url(#clip0_144_3)">
<path d="M64.5324 11.5744C64.5324 11.5744 65.9176 11.6543 66.6905 11.8358L66.6094 11.8061V4.80048C66.6094 3.85745 65.8745 3.09587 64.969 3.09587H22.9959L23.1256 3.4318L26.2621 11.5406L64.5324 11.5744Z" fill="white"/>
<path d="M65.5089 5.26154H15.9268C15.3745 5.26154 14.9268 5.70926 14.9268 6.26154V6.49683C14.9268 7.04912 15.3745 7.49683 15.9268 7.49683H65.5089C66.0612 7.49683 66.5089 7.04912 66.5089 6.49683V6.26154C66.5089 5.70925 66.0612 5.26154 65.5089 5.26154Z" fill="#030303"/>
<path d="M65.5089 8.76923H15.9268C15.3745 8.76923 14.9268 9.21695 14.9268 9.76923V10.0045C14.9268 10.5568 15.3745 11.0045 15.9268 11.0045H65.5089C66.0612 11.0045 66.5089 10.5568 66.5089 10.0045V9.76923C66.5089 9.21695 66.0612 8.76923 65.5089 8.76923Z" fill="#030303"/>
<path d="M0.780973 48.1244H0.5V3.62001C0.5 1.87669 1.85353 0.5 3.48097 0.5H21.4558L22.6593 3.61215L22.6593 3.61218L25.7958 11.721L25.9193 12.0403L26.2617 12.0406L64.5173 12.0744L64.5178 12.0744L64.5613 12.0771C64.5994 12.0796 64.6552 12.0833 64.7247 12.0884C64.8637 12.0985 65.057 12.1138 65.2737 12.1347C65.7094 12.1767 66.2128 12.2386 66.5633 12.3195C69.3753 13.1475 71.4633 15.8369 71.4633 19.0505V48.1244H71.1918H0.780973ZM0.5 53.0903V51.8239H0.780973H71.1918H71.4633V53.0903C71.4633 54.8294 70.1112 56.2062 68.4837 56.2062H3.48227C1.85306 56.2062 0.5 54.829 0.5 53.0903Z" fill="#030303" stroke="white"/>
<path d="M71.1918 48.6244H0.780975V51.3239H71.1918V48.6244Z" fill="white"/>
<g clip-path="url(#clip1_144_3)">
<path d="M69.3612 41.9985L69.423 42.2829L69.7008 42.3696C72.5603 43.2623 74.6541 46.0074 74.6541 49.2724C74.6541 51.3048 74.0433 53.1074 72.9747 54.3925C71.9128 55.6695 70.3821 56.4585 68.4714 56.4585C68.2578 56.4585 67.8518 56.4544 67.4495 56.4413C67.033 56.4277 66.6645 56.4055 66.4997 56.3763L66.4564 56.3687H66.4125H59.1305V50.0659H62.6785C63.4078 50.0659 63.7262 49.2039 63.2785 48.702L56.4668 41.064V40.5671L55.8148 40.7752L55.8089 40.7771L55.9603 41.2515H55.9575L55.5877 40.9218L48.6492 48.702C48.6492 48.702 48.6492 48.702 48.6492 48.702C48.214 49.1899 48.4957 50.0659 49.2433 50.0659H52.7972V56.3687H43.2293L43.1139 56.3658C39.4609 56.275 36.5 53.1875 36.5 49.3571C36.5 45.4695 39.548 42.3449 43.2818 42.3449C43.3176 42.3449 43.3546 42.3462 43.4092 42.3482L43.8826 42.3652L43.9251 41.8934C44.1185 39.7459 45.8642 38.0875 47.9696 38.0875C48.9386 38.0875 49.8315 38.4416 50.5311 39.0345L50.9823 39.4168L51.2843 38.9084C52.3647 37.0898 53.9802 35.6501 55.9013 34.8203L56.2166 34.6964V34.693C56.2936 34.6618 56.3637 34.6341 56.436 34.608C56.5008 34.5856 56.5617 34.5647 56.623 34.5437L56.6599 34.5311C56.7778 34.4929 56.89 34.4576 57.0079 34.4217L57.0079 34.4218L57.0138 34.4199C57.0721 34.4014 57.1386 34.3828 57.2105 34.3639L57.2105 34.3639L57.2142 34.3629C57.3958 34.3137 57.5714 34.2691 57.75 34.2318L57.75 34.2318L57.7568 34.2303C57.7618 34.2292 57.7689 34.2278 57.7879 34.2245L57.7917 34.2238C57.8073 34.221 57.8304 34.2169 57.8556 34.2118C58.0093 34.1825 58.1684 34.1553 58.3221 34.132L58.3272 34.1313C58.3934 34.1227 58.4519 34.1151 58.5154 34.1075L58.5179 34.1072C58.6591 34.0896 58.7948 34.0746 58.9337 34.0647L58.9352 34.0646C58.9803 34.0613 59.0089 34.0586 59.0332 34.0563C59.0609 34.0537 59.0831 34.0516 59.1181 34.0496L59.1185 34.0496C59.324 34.0379 59.5226 34.0294 59.7182 34.0294C64.417 34.0294 68.3668 37.4263 69.3612 41.9985Z" fill="#00D6A0" stroke="white"/>
<path d="M62.9053 49.0348L55.9668 41.2545V41.2515L55.9609 41.2534V41.2515V41.2545L49.0223 49.0348C48.842 49.237 48.9758 49.5659 49.2433 49.5659H52.989C53.1576 49.5659 53.2972 49.7063 53.2972 49.8815V56.8687H58.6305V49.8815C58.6305 49.7063 58.7642 49.5659 58.933 49.5659H62.6785C62.9461 49.5659 63.0857 49.237 62.9053 49.0348Z" fill="#030303"/>
</g>
<path d="M16.02 23.3809C16.02 22.6269 16.0156 22.1329 16.007 21.8989C15.9896 21.5436 15.942 21.2879 15.864 21.1319C15.786 20.9673 15.6603 20.8676 15.487 20.8329C15.3136 20.8069 15.0666 20.7939 14.746 20.7939C14.3733 20.7939 14.1306 20.8113 14.018 20.8459V18.8179C14.096 18.8093 14.213 18.8049 14.369 18.8049H14.746C15.7166 18.8049 16.4663 18.8829 16.995 19.0389C17.5323 19.1863 17.9223 19.4333 18.165 19.7799C18.3903 20.1006 18.529 20.5209 18.581 21.0409C18.6416 21.5609 18.672 22.3409 18.672 23.3809C18.672 24.2909 18.6503 24.9929 18.607 25.4869C18.5723 25.9723 18.477 26.3753 18.321 26.6959C18.1476 27.0599 17.879 27.3373 17.515 27.5279C17.1596 27.7186 16.6613 27.8443 16.02 27.9049V23.3809ZM14.746 27.9569C13.4806 27.9569 12.5706 27.8183 12.016 27.5409C11.73 27.4023 11.5046 27.2159 11.34 26.9819C11.1753 26.7479 11.054 26.4576 10.976 26.1109C10.9066 25.8076 10.8633 25.4609 10.846 25.0709C10.8286 24.6723 10.82 24.1089 10.82 23.3809C10.82 22.4709 10.8373 21.7733 10.872 21.2879C10.9153 20.8026 11.015 20.3953 11.171 20.0659C11.3443 19.7106 11.6086 19.4376 11.964 19.2469C12.3193 19.0563 12.822 18.9263 13.472 18.8569V23.3809C13.472 23.8923 13.4806 24.3819 13.498 24.8499C13.5153 25.2053 13.5586 25.4653 13.628 25.6299C13.706 25.7946 13.8316 25.8899 14.005 25.9159C14.1523 25.9506 14.3993 25.9679 14.746 25.9679C15.1013 25.9679 15.344 25.9549 15.474 25.9289V27.9439C15.396 27.9526 15.279 27.9569 15.123 27.9569H14.746ZM23.7841 24.7199C23.7841 24.2606 23.7798 23.9573 23.7711 23.8099C23.7538 23.5673 23.7321 23.4069 23.7061 23.3289C23.6714 23.2423 23.6108 23.1903 23.5241 23.1729C23.4374 23.1469 23.2988 23.1339 23.1081 23.1339H22.9781V21.5089C23.3161 21.2576 23.7581 21.1319 24.3041 21.1319C25.0841 21.1319 25.6084 21.3703 25.8771 21.8469C25.9984 22.0549 26.0808 22.3106 26.1241 22.6139C26.1674 22.9086 26.1891 23.2726 26.1891 23.7059V27.8529H23.7841V24.7199ZM20.0271 21.2229H22.4321V27.8529H20.0271V21.2229ZM30.4127 23.8879H31.3227C31.3227 23.4026 31.275 23.0906 31.1797 22.9519C31.1277 22.8739 31.0583 22.8263 30.9717 22.8089C30.885 22.7829 30.7593 22.7699 30.5947 22.7699H30.4127V21.1189H30.5947C31.34 21.1189 31.912 21.1796 32.3107 21.3009C32.718 21.4223 33.017 21.6216 33.2077 21.8989C33.381 22.1416 33.485 22.4536 33.5197 22.8349C33.563 23.2163 33.5847 23.7883 33.5847 24.5509V25.0709H30.4127V23.8879ZM30.8547 27.9569C30.0573 27.9569 29.429 27.8919 28.9697 27.7619C28.519 27.6233 28.181 27.4066 27.9557 27.1119C27.7563 26.8519 27.6263 26.5313 27.5657 26.1499C27.505 25.7599 27.4747 25.2269 27.4747 24.5509C27.4747 23.9269 27.4963 23.4329 27.5397 23.0689C27.583 22.6963 27.674 22.3799 27.8127 22.1199C27.9687 21.8339 28.207 21.6129 28.5277 21.4569C28.857 21.2923 29.3033 21.1883 29.8667 21.1449V25.0709C29.8667 25.3656 29.8797 25.5779 29.9057 25.7079C29.9317 25.8293 29.9923 25.9203 30.0877 25.9809C30.1917 26.0503 30.352 26.0893 30.5687 26.0979C30.846 26.1153 31.1407 26.1239 31.4527 26.1239C32.0073 26.1239 32.4103 26.1109 32.6617 26.0849L33.3247 26.0329V27.7099C32.978 27.8139 32.5013 27.8833 31.8947 27.9179C31.6 27.9439 31.2533 27.9569 30.8547 27.9569ZM37.974 18.8309C38.3207 18.8136 38.6067 18.8049 38.832 18.8049C39.612 18.8049 40.327 18.8569 40.977 18.9609C41.3063 18.9956 41.6227 19.0476 41.926 19.1169V20.9759C41.562 20.9413 41.289 20.9109 41.107 20.8849C40.9597 20.8763 40.7213 20.8546 40.392 20.8199C40.0627 20.8026 39.846 20.7939 39.742 20.7939C39.2133 20.7939 38.8233 20.8069 38.572 20.8329C38.3293 20.8503 38.13 20.9023 37.974 20.9889V18.8309ZM38.832 27.9569C37.9653 27.9569 37.272 27.8919 36.752 27.7619C36.2407 27.6319 35.842 27.4023 35.556 27.0729C35.27 26.7436 35.0663 26.2886 34.945 25.7079C34.8323 25.1273 34.776 24.3516 34.776 23.3809C34.776 22.5576 34.815 21.8816 34.893 21.3529C34.971 20.8243 35.1053 20.3909 35.296 20.0529C35.4953 19.7063 35.764 19.4419 36.102 19.2599C36.44 19.0779 36.882 18.9523 37.428 18.8829V23.3809C37.428 23.9963 37.4453 24.4686 37.48 24.7979C37.5147 25.1186 37.5797 25.3656 37.675 25.5389C37.779 25.7209 37.9263 25.8466 38.117 25.9159C38.3163 25.9853 38.598 26.0199 38.962 26.0199V27.9569H38.832ZM39.508 24.4209H38.585V22.5359H41.965V27.6319C41.5577 27.7273 41.0507 27.8009 40.444 27.8529C40.1493 27.8963 39.8373 27.9223 39.508 27.9309V24.4209ZM43.592 18.9089H46.192V27.8529H43.592V18.9089ZM46.738 18.9089H50.04V20.8979H46.738V18.9089ZM46.738 22.3409H49.429V24.3299H46.738V22.3409ZM46.738 25.8639H50.04V27.8529H46.738V25.8639ZM51.6028 18.9089H54.2028V27.8529H51.6028V18.9089ZM54.7488 25.8639H54.8528C55.2774 25.8639 55.5764 25.8466 55.7498 25.8119C55.9318 25.7686 56.0661 25.6733 56.1528 25.5259C56.2481 25.3699 56.3001 25.1229 56.3088 24.7849C56.3261 24.3516 56.3348 23.8836 56.3348 23.3809C56.3348 22.8869 56.3261 22.4146 56.3088 21.9639C56.2914 21.6259 56.2351 21.3789 56.1398 21.2229C56.0531 21.0669 55.9101 20.9716 55.7108 20.9369C55.5114 20.9109 55.2254 20.8979 54.8528 20.8979H54.7488V18.9089H54.8528C55.5461 18.9089 56.1224 18.9393 56.5818 18.9999C57.0498 19.0606 57.4354 19.1559 57.7388 19.2859C58.0334 19.4159 58.2674 19.5936 58.4408 19.8189C58.6141 20.0443 58.7398 20.3259 58.8178 20.6639C58.8871 20.9673 58.9304 21.3269 58.9478 21.7429C58.9738 22.1503 58.9868 22.6963 58.9868 23.3809C58.9868 24.0743 58.9738 24.6246 58.9478 25.0319C58.9304 25.4393 58.8871 25.7946 58.8178 26.0979C58.7398 26.4359 58.6141 26.7176 58.4408 26.9429C58.2674 27.1683 58.0334 27.3459 57.7388 27.4759C57.4354 27.6059 57.0498 27.7013 56.5818 27.7619C56.1224 27.8226 55.5461 27.8529 54.8528 27.8529H54.7488V25.8639Z" fill="white"/>
</g>
<defs>
<clipPath id="clip0_144_3">
<rect width="72" height="57" fill="white"/>
</clipPath>
<clipPath id="clip1_144_3">
<rect width="39.2239" height="23.4706" fill="white" transform="translate(36 33.5294)"/>
</clipPath>
</defs>
</svg>
